<svg xmlns="http://www.w3.org/2000/svg" width="22" height="22" viewBox="0 0 22 22">
    <g fill="none" fill-rule="nonzero">
        <g fill="#6D6D6D">
            <path d="M2.513 18.371v1.116H3.63L14.613 8.503l-1.116-1.116z" opacity=".3"/>
            <path d="M21.56 4.987a1.208 1.208 0 0 0 0-1.71L18.723.44a1.19 1.19 0 0 0-.861-.351c-.315 0-.618.12-.849.351L14.795 2.66l4.546 4.546 2.219-2.218zM.089 17.365v4.546h4.546L18.044 8.503l-4.547-4.547L.09 17.365zm3.54 2.122H2.513V18.37L13.497 7.387l1.116 1.116L3.629 19.487z"/>
        </g>
        <path d="M-4-4h30v30H-4z"/>
    </g>
</svg>
